<?xml version="1.0" encoding="UTF-8"?>
<!-- Generated by Pixelmator Pro 3.7 -->
<svg width="450" height="450" viewBox="0 0 450 450" xmlns="http://www.w3.org/2000/svg">
    <path id="-" fill="#ffffff" fill-rule="evenodd" stroke="none" d="M 450 148.5 C 450 93.843201 450 66.514832 438.524628 46.024078 C 430.41449 31.542389 418.457611 19.58551 403.975922 11.475372 C 383.485199 0 356.156799 0 301.5 0 L 148.5 0 C 93.843201 0 66.514832 0 46.024078 11.475372 C 31.542389 19.58551 19.58548 31.542389 11.475342 46.024078 C -3.1e-05 66.514832 -3.1e-05 93.843201 -3.1e-05 148.5 L 0 301.5 C 0 356.156799 0 383.485168 11.475372 403.975922 C 19.58551 418.457611 31.542389 430.41452 46.024109 438.524658 C 66.514832 450.000031 93.843231 450.000031 148.500031 450.000031 L 301.5 450 C 356.156799 450 383.485199 450 403.975922 438.524628 C 418.457611 430.41449 430.41449 418.457611 438.524628 403.975891 C 450 383.485168 450 356.156769 450 301.499969 Z"/>
</svg>
